<svg width="663" height="589" viewBox="0 0 663 589" fill="none" xmlns="http://www.w3.org/2000/svg">
<path d="M309.57 14.133C312.83 12.523 317.51 10.613 319.99 9.89302C322.72 9.09302 328.02 8.71302 333.49 8.92302C341.62 9.22302 343.36 9.66302 351.49 13.483C359.29 17.133 361.69 18.923 369.49 26.913C375.52 33.093 380.34 39.243 384.11 45.603C387.2 50.813 415.59 99.843 447.19 154.573C478.79 209.293 529.99 297.943 560.97 351.573C591.95 405.193 622.78 458.523 629.49 470.073C636.2 481.623 643.08 493.773 644.77 497.073C646.47 500.373 648.78 505.323 649.91 508.073C651.04 510.823 652.64 516.333 653.48 520.323C654.31 524.313 654.99 529.933 654.99 532.823C654.99 535.713 654.18 540.993 653.19 544.573C652.2 548.153 649.72 553.663 647.69 556.823C645.65 559.983 641.63 564.433 638.74 566.713C635.85 568.993 630.79 572.093 627.49 573.593C624.19 575.103 619.01 576.913 615.99 577.633C611.6 578.663 555.6 579.093 337.99 579.743C188.12 580.183 62.79 580.613 59.49 580.693C55.89 580.783 50.3 579.933 45.49 578.583C41.09 577.343 34.79 575.063 31.49 573.523C27.85 571.823 23.49 568.613 20.4 565.393C17.6 562.463 14.34 558.163 13.15 555.823C11.96 553.483 10.32 548.763 9.5 545.323C8.69 541.883 8.01 536.713 8 533.823C8 530.933 8.68 525.313 9.51 521.323C10.35 517.333 12.16 511.153 13.52 507.573C14.89 503.993 17.92 497.653 20.25 493.483C22.58 489.303 31.38 474.003 39.81 459.483C48.23 444.953 80.45 389.193 111.4 335.573C142.36 281.943 172.59 229.573 178.59 219.173C184.58 208.783 190.45 198.653 191.62 196.673C192.79 194.693 200.61 181.143 208.99 166.573C217.38 152.003 236.85 118.253 252.26 91.573C267.68 64.903 282.18 40.373 284.5 37.073C286.81 33.773 292.07 27.923 296.18 24.073C300.29 20.223 306.31 15.753 309.57 14.133Z" fill="black" stroke="white" stroke-width="16"/>
<path d="M231.43 242.823C232.69 241.033 235.46 238.683 237.6 237.613C239.74 236.543 243.4 235.643 245.74 235.613C248.28 235.593 253.51 236.943 258.74 238.963C263.55 240.833 272.89 244.473 279.49 247.063C286.09 249.643 298.92 254.663 307.99 258.203C317.06 261.743 330.34 266.933 337.49 269.743C344.64 272.543 352.51 275.843 354.99 277.073C357.47 278.293 360.73 280.713 362.24 282.433C363.76 284.173 365.86 288.593 366.94 292.323C368.01 296.033 371.13 307.843 373.88 318.573C376.63 329.303 379.99 342.343 381.36 347.573C382.73 352.803 386.86 368.773 390.53 383.073C394.21 397.373 397.73 411.303 399.49 418.973L436.49 442.843L438.75 439.953C440 438.373 443.6 433.363 446.75 428.833C449.91 424.303 452.72 420.573 452.99 420.553C453.26 420.533 456.41 422.703 459.99 425.363C463.57 428.033 469.41 433.623 472.99 437.783C476.57 441.943 481.56 448.893 484.09 453.213C486.61 457.533 489.62 463.773 490.76 467.073C491.9 470.373 493.28 475.093 493.83 477.573C494.39 480.053 495.15 484.553 495.53 487.573C495.91 490.593 495.94 494.083 495.6 495.323C495.19 496.843 493.62 498.033 490.74 499.013C488.4 499.803 484.01 501.013 480.99 501.703C477.97 502.393 471.44 502.953 466.49 502.943C461.54 502.943 454.12 502.363 449.99 501.673C445.87 500.973 439.12 499.273 434.99 497.893C430.87 496.513 424.12 493.643 419.99 491.523C415.87 489.403 411.59 486.753 408.49 483.583L412.6 477.823C414.86 474.663 418.57 469.373 420.85 466.073C423.13 462.773 424.99 459.513 424.99 458.823C424.99 458.133 422.63 456.213 419.74 454.553C416.85 452.893 408.87 447.893 389.49 435.353L383.99 436.613C379.44 437.653 377.8 437.633 374.49 436.483C372.29 435.713 368.8 433.393 366.74 431.323C364.09 428.673 362.48 425.783 361.24 421.453C360.13 417.573 358.76 414.963 357.49 414.293C356.39 413.723 349.19 409.213 341.49 404.273C333.79 399.333 323.78 392.883 319.24 389.933C314.7 386.983 310.43 384.573 309.74 384.563C309.05 384.563 307.04 387.153 305.27 390.313C303.5 393.483 302.04 396.633 302.02 397.323C302 398.013 306.8 405.213 312.67 413.323C318.54 421.433 325.45 431.003 328.02 434.573C330.59 438.143 333.54 443.433 334.59 446.323C336.4 451.333 336.41 451.783 334.79 456.323C333.85 458.933 330.44 466.023 327.2 472.073C324.067 477.941 319.128 487.224 316.033 493.042L315.75 493.573C312.68 499.343 308.58 506.993 306.64 510.573C304.69 514.153 301.84 518.623 300.3 520.513C298.75 522.413 295.69 524.763 293.49 525.743C291.29 526.723 288.36 527.533 286.99 527.543C285.61 527.553 282.69 527.063 280.49 526.443C278.29 525.833 274.85 523.693 272.86 521.703C270.63 519.473 268.76 516.333 268.02 513.573C267.36 511.093 267.12 507.493 267.49 505.573C267.85 503.653 270.53 497.573 273.44 492.073C276.35 486.573 280.07 479.593 281.71 476.573C283.35 473.553 286.79 467.133 289.34 462.323C291.9 457.513 294 453.233 294.01 452.823C294.01 452.413 289.77 446.223 284.58 439.073C279.39 431.923 273.09 423.263 270.57 419.823C267.56 415.723 265.39 413.663 264.24 413.833C263.2 413.993 260.47 417.733 257.51 423.083C254.77 428.023 241.18 451.643 227.32 475.573C213.45 499.493 200.62 520.553 198.8 522.363C196.86 524.293 194.05 525.893 191.99 526.243C190.06 526.563 186.24 526.643 183.49 526.413C179.88 526.103 177.45 525.173 174.75 523.033C172.53 521.273 170.15 518.043 168.9 515.073C167.36 511.423 166.95 508.993 167.41 506.073C167.75 503.873 169.96 498.703 172.33 494.573C174.69 490.453 191.55 461.313 209.81 429.823C228.06 398.333 242.99 372.343 242.99 372.073C242.99 371.803 245.69 366.963 248.99 361.323C252.29 355.683 254.99 350.513 254.99 349.823C254.99 349.133 249.48 344.983 242.74 340.593C231.49 333.253 230.2 332.663 226.99 333.343C225.06 333.743 221.69 334.043 219.49 334.003C217.29 333.963 213.92 333.043 211.99 331.943C210.06 330.853 207.21 328.183 205.64 326.013C203.31 322.783 202.78 320.993 202.7 316.073C202.62 310.843 203.42 308.153 208.94 295.073C212.42 286.823 216.27 277.593 217.5 274.573C218.72 271.553 221.85 263.893 224.44 257.573C227.03 251.253 230.18 244.613 231.43 242.823Z" fill="white"/>
<circle cx="366.163" cy="208.583" r="48.4701" fill="white"/>
<path d="M251.52 291.573C252.96 288.003 254.64 283.833 255.26 282.323C255.87 280.813 256.85 279.573 257.43 279.573C258.01 279.573 265.12 282.163 273.23 285.323C281.33 288.483 288.12 291.523 288.32 292.073C288.52 292.623 283.83 301.393 277.9 311.573C271.98 321.753 266.65 330.633 266.06 331.323C265.23 332.293 263.72 331.723 259.24 328.753C256.08 326.643 250.9 323.273 247.74 321.253C244.58 319.223 241.99 316.893 241.99 316.073C241.99 315.253 243.14 311.763 244.53 308.323C245.93 304.883 247.49 301.173 247.99 300.073C248.49 298.973 250.08 295.143 251.52 291.573Z" fill="black"/>
<path d="M326.21 354.073C330.07 347.473 334.14 340.593 335.25 338.783C336.94 336.063 337.52 335.723 338.66 336.783C339.42 337.493 340.47 340.093 341 342.573C341.53 345.053 344.01 354.943 346.5 364.573C348.99 374.193 351.25 383.313 351.51 384.823C351.91 387.103 351.69 387.473 350.24 386.983C349.28 386.653 345.57 384.463 341.99 382.123C338.42 379.773 332.12 375.703 327.99 373.073C323.87 370.453 320.2 367.793 319.85 367.183C319.49 366.573 322.36 360.673 326.21 354.073Z" fill="black"/>
</svg>
